<?xml version="1.0" encoding="UTF-8" standalone="no"?>
<svg
   width="1200"
   height="200"
   viewBox="0 0 1200 199.99998"
   version="1.1"
   preserveAspectRatio="xMidYMid"
   id="svg28"
   xml:space="preserve"
   xmlns:xlink="http://www.w3.org/1999/xlink"
   xmlns="http://www.w3.org/2000/svg"
   xmlns:svg="http://www.w3.org/2000/svg"
   xmlns:rdf="http://www.w3.org/1999/02/22-rdf-syntax-ns#"
   xmlns:cc="http://creativecommons.org/ns#"
   xmlns:dc="http://purl.org/dc/elements/1.1/"><title
     id="title3">Ken St James's banner</title><defs
     id="defs32"><pattern
       xlink:href="#pattern25-8"
       preserveAspectRatio="xMidYMid"
       id="pattern46"
       patternTransform="matrix(6,0,0,6,946.66407,76.216476)"
       x="0"
       y="0" /><clipPath
       clipPathUnits="userSpaceOnUse"
       id="clipPath45"><rect
         style="fill:#ff0000;stroke:none;stroke-width:3;stroke-linecap:square;stroke-linejoin:miter;paint-order:stroke markers fill;stop-color:#000000"
         id="rect45"
         width="78"
         height="45.033199"
         x="763.61322"
         y="452.82422" /></clipPath><pattern
       patternUnits="userSpaceOnUse"
       width="78"
       height="45.033199"
       patternTransform="translate(946.66407,457.29883) scale(0.6)"
       preserveAspectRatio="xMidYMid"
       id="pattern25-8"
       style="fill:#686868"><g
         id="g13"
         transform="translate(-763.61322,-452.82422)"
         clip-path="url(#clipPath25)"><path
           id="path11-0"
           style="color:#000000;stroke-width:3;stroke-linecap:square;paint-order:stroke markers fill"
           d="m 805.62688,448.21094 -12.5,7.21679 v 14.43555 l -12.5,7.2168 v 14.43359 l 12.5,7.2168 12.5,-7.2168 12.5,7.2168 12.5,-7.2168 v -14.43359 l -12.5,-7.2168 v -14.43555 z m 0,9.22265 4.51368,2.60547 v 14.4336 l 12.5,7.21679 v 5.21289 l -4.51368,2.60547 -12.5,-7.21679 -12.5,7.21679 -4.51367,-2.60547 v -5.21289 l 12.5,-7.21679 v -14.4336 z m 0,1.73243 -3.01367,1.73828 v 14.43359 l -12.5,7.21875 v 3.47852 l 3.01367,1.74023 12.5,-7.2168 12.5,7.2168 3.01563,-1.74023 v -3.47852 l -12.50195,-7.21875 V 460.9043 Z" /><path
           id="path20-8"
           style="color:#000000;stroke-width:3;stroke-linecap:square;paint-order:stroke markers fill"
           d="m 805.62688,403.17774 -12.5,7.2168 v 14.43554 l -12.5,7.2168 v 14.43359 l 12.5,7.2168 12.5,-7.2168 12.5,7.2168 12.5,-7.2168 v -14.43359 l -12.5,-7.2168 v -14.43554 z m 0,9.22265 4.51368,2.60547 v 14.4336 l 12.5,7.21679 v 5.21289 l -4.51368,2.60547 -12.5,-7.21679 -12.5,7.21679 -4.51367,-2.60547 v -5.21289 l 12.5,-7.21679 v -14.4336 z m 0,1.73243 -3.01367,1.73828 v 14.43359 l -12.5,7.21875 v 3.47852 l 3.01367,1.74023 12.5,-7.2168 12.5,7.2168 3.01563,-1.74023 v -3.47852 l -12.50195,-7.21875 V 415.8711 Z m -39,56.59765 -12.5,7.2168 v 14.43554 l -12.5,7.2168 v 14.43359 l 12.5,7.2168 12.5,-7.2168 12.5,7.2168 12.5,-7.2168 v -14.43359 l -12.5,-7.2168 v -14.43554 z m 0,9.22265 4.51368,2.60547 v 14.4336 l 12.5,7.21679 v 5.21289 l -4.51368,2.60547 -12.5,-7.21679 -12.5,7.21679 -4.51367,-2.60547 v -5.21289 l 12.5,-7.21679 v -14.4336 z m 0,1.73243 -3.01367,1.73828 v 14.43359 l -12.5,7.21875 v 3.47852 l 3.01367,1.74023 12.5,-7.2168 12.5,7.2168 3.01563,-1.74023 v -3.47852 l -12.50195,-7.21875 v -14.43359 z m 78,-10.95508 -12.5,7.2168 v 14.43554 l -12.5,7.2168 v 14.43359 l 12.5,7.2168 12.5,-7.2168 12.5,7.2168 12.5,-7.2168 v -14.43359 l -12.5,-7.2168 v -14.43554 z m 0,9.22265 4.51368,2.60547 v 14.4336 l 12.5,7.21679 v 5.21289 l -4.51368,2.60547 -12.5,-7.21679 -12.5,7.21679 -4.51367,-2.60547 v -5.21289 l 12.5,-7.21679 v -14.4336 z m 0,1.73243 -3.01367,1.73828 v 14.43359 l -12.5,7.21875 v 3.47852 l 3.01367,1.74023 12.5,-7.2168 12.5,7.2168 3.01563,-1.74023 v -3.47852 l -12.50195,-7.21875 v -14.43359 z" /><path
           id="path19"
           style="color:#000000;stroke-width:3;stroke-linecap:square;paint-order:stroke markers fill"
           d="m 766.62688,425.69727 -12.5,7.21679 v 14.43555 l -12.5,7.2168 V 469 l 12.5,7.2168 12.5,-7.2168 12.5,7.2168 12.5,-7.2168 v -14.43359 l -12.5,-7.2168 v -14.43555 z m 0,9.22265 4.51368,2.60547 v 14.4336 l 12.5,7.21679 v 5.21289 l -4.51368,2.60547 -12.5,-7.21679 -12.5,7.21679 -4.51367,-2.60547 v -5.21289 l 12.5,-7.21679 v -14.4336 z m 0,1.73243 -3.01367,1.73828 v 14.43359 l -12.5,7.21875 v 3.47852 l 3.01367,1.74023 12.5,-7.2168 12.5,7.2168 3.01563,-1.74023 v -3.47852 l -12.50195,-7.21875 v -14.43359 z m 78,-10.95508 -12.5,7.21679 v 14.43555 l -12.5,7.2168 V 469 l 12.5,7.2168 12.5,-7.2168 12.5,7.2168 12.5,-7.2168 v -14.43359 l -12.5,-7.2168 v -14.43555 z m 0,9.22265 4.51368,2.60547 v 14.4336 l 12.5,7.21679 v 5.21289 l -4.51368,2.60547 -12.5,-7.21679 -12.5,7.21679 -4.51367,-2.60547 v -5.21289 l 12.5,-7.21679 v -14.4336 z m 0,1.73243 -3.01367,1.73828 v 14.43359 l -12.5,7.21875 v 3.47852 l 3.01367,1.74023 12.5,-7.2168 12.5,7.2168 3.01563,-1.74023 v -3.47852 l -12.50195,-7.21875 v -14.43359 z m -39,56.59765 -12.5,7.21679 v 14.43555 l -12.5,7.2168 v 14.43359 l 12.5,7.2168 12.5,-7.2168 12.5,7.2168 12.5,-7.2168 v -14.43359 l -12.5,-7.2168 v -14.43555 z m 0,9.22265 4.51368,2.60547 v 14.4336 l 12.5,7.21679 v 5.21289 l -4.51368,2.60547 -12.5,-7.21679 -12.5,7.21679 -4.51367,-2.60547 v -5.21289 l 12.5,-7.21679 v -14.4336 z m 0,1.73243 -3.01367,1.73828 v 14.43359 l -12.5,7.21875 v 3.47852 l 3.01367,1.74023 12.5,-7.2168 12.5,7.2168 3.01563,-1.74023 v -3.47852 l -12.50195,-7.21875 v -14.43359 z" /></g></pattern><clipPath
       clipPathUnits="userSpaceOnUse"
       id="clipPath44"><rect
         style="fill:none;stroke:#000000;stroke-width:0.999999;stroke-linecap:butt;stroke-linejoin:bevel;paint-order:stroke markers fill;stop-color:#000000"
         id="rect44"
         width="46.160622"
         height="39.922417"
         x="86.574379"
         y="420.06253" /></clipPath><clipPath
       clipPathUnits="userSpaceOnUse"
       id="clipPath32"><rect
         style="fill:none;stroke:#000000;stroke-width:0.999999;stroke-linecap:butt;stroke-linejoin:bevel;paint-order:stroke markers fill;stop-color:#000000"
         id="rect32"
         width="46.160622"
         height="39.922417"
         x="86.574379"
         y="420.06253" /></clipPath><clipPath
       clipPathUnits="userSpaceOnUse"
       id="clipPath5"><path
         id="path5"
         style="stroke-width:0.1;stroke-linecap:square;paint-order:markers fill stroke;stop-color:#000000"
         d="M 438.25066,553.76374 H 1298.1212 V 755.15928 H 438.25066 Z" /></clipPath><clipPath
       clipPathUnits="userSpaceOnUse"
       id="clipPath52"><path
         id="path52"
         style="stroke-width:0.1;stroke-linecap:square;paint-order:markers fill stroke;stop-color:#000000"
         d="m -880.82767,-187.29769 h 1640.84 v 73.28155 h -1640.84 z" /></clipPath><clipPath
       clipPathUnits="userSpaceOnUse"
       id="clipPath7"><rect
         style="fill:none;stroke:#000000;stroke-linecap:butt;stroke-linejoin:bevel;paint-order:stroke markers fill;stop-color:#000000"
         id="rect7"
         width="45.034248"
         height="38.955639"
         x="262.48285"
         y="121.00073" /></clipPath><clipPath
       clipPathUnits="userSpaceOnUse"
       id="clipPath26"><rect
         style="fill:#ff0000;stroke:none;stroke-width:3;stroke-linecap:square;stroke-linejoin:miter;paint-order:stroke markers fill;stop-color:#000000"
         id="rect26"
         width="78"
         height="45.033199"
         x="763.61322"
         y="452.82422" /></clipPath><clipPath
       clipPathUnits="userSpaceOnUse"
       id="clipPath54"><path
         id="path54"
         style="stroke-width:0.0999999;stroke-linecap:square;paint-order:markers fill stroke;stop-color:#000000"
         d="m 1691.1994,-792.32001 h 1634.8919 v 92.82806 H 1691.1994 Z" /></clipPath><clipPath
       clipPathUnits="userSpaceOnUse"
       id="clipPath16"><rect
         style="fill:#ff0000;stroke:none;stroke-width:3;stroke-linecap:square;stroke-linejoin:miter;paint-order:stroke markers fill;stop-color:#000000"
         id="rect15"
         width="78"
         height="45.033199"
         x="763.61322"
         y="452.82422" /></clipPath><clipPath
       clipPathUnits="userSpaceOnUse"
       id="clipPath27"><rect
         style="fill:none;stroke:#000000;stroke-width:0.999999;stroke-linecap:butt;stroke-linejoin:bevel;paint-order:stroke markers fill;stop-color:#000000"
         id="rect28-6"
         width="46.160622"
         height="39.922417"
         x="86.574379"
         y="420.06253" /></clipPath><clipPath
       clipPathUnits="userSpaceOnUse"
       id="clipPath4"><rect
         style="fill:#ff0000;stroke:none;stroke-width:3;stroke-linecap:square;stroke-linejoin:miter;paint-order:stroke markers fill;stop-color:#000000"
         id="rect4"
         width="78"
         height="45.033199"
         x="763.61322"
         y="452.82422" /></clipPath><clipPath
       clipPathUnits="userSpaceOnUse"
       id="clipPath25"><rect
         style="fill:#ff0000;stroke:none;stroke-width:3;stroke-linecap:square;stroke-linejoin:miter;paint-order:stroke markers fill;stop-color:#000000"
         id="rect25-8"
         width="78"
         height="45.033199"
         x="763.61322"
         y="452.82422" /></clipPath><linearGradient
       id="linearGradient50"><stop
         style="stop-color:#ece9e6;stop-opacity:1;"
         offset="0"
         id="stop50" /><stop
         style="stop-color:#ffffff;stop-opacity:1;"
         offset="1"
         id="stop51" /></linearGradient><clipPath
       clipPathUnits="userSpaceOnUse"
       id="clipPath24"><rect
         style="fill:none;stroke:#000000;stroke-width:0.999999;stroke-linecap:butt;stroke-linejoin:bevel;paint-order:stroke markers fill;stop-color:#000000"
         id="rect24"
         width="44.999748"
         height="77.937294"
         x="251.53429"
         y="222.73541" /></clipPath><clipPath
       clipPathUnits="userSpaceOnUse"
       id="clipPath15"><rect
         style="fill:none;stroke:#000000;stroke-linecap:butt;stroke-linejoin:bevel;paint-order:stroke markers fill;stop-color:#000000"
         id="rect15-7"
         width="45.034248"
         height="38.955639"
         x="262.48285"
         y="121.00073" /></clipPath><linearGradient
       id="swatch40"><stop
         style="stop-color:#000000;stop-opacity:1;"
         offset="0"
         id="stop40" /></linearGradient><rect
       x="-684.25513"
       y="1240.4911"
       width="2503.4028"
       height="364.8349"
       id="rect880" /><linearGradient
       xlink:href="#linearGradient50"
       id="linearGradient51"
       x1="-54.866894"
       y1="102.3492"
       x2="1034.4418"
       y2="37.470074"
       gradientUnits="userSpaceOnUse"
       gradientTransform="scale(1.3)" /></defs><path
     id="background"
     style="fill:url(#linearGradient51);stroke-width:0.408248"
     d="M 0,0 H 1200 V 200 H 0 Z" /><path
     id="pattern"
     style="mix-blend-mode:screen;fill:url(#pattern46);fill-opacity:1;stroke-width:0.408248"
     d="M 8.6057597,3.0183919e-6 H 1191.3943 C 1196.1618,3.0183919e-6 1200,1.1050405 1200,2.4776657 V 197.52236 c 0,1.3726 -3.8382,2.47764 -8.6057,2.47764 H 8.6057597 C 3.8381704,200 2.8515624e-6,198.89496 2.8515624e-6,197.52236 V 2.4776657 C 2.8515624e-6,1.1050405 3.8381704,3.0183919e-6 8.6057597,3.0183919e-6 Z" /><style
     type="text/css"
     id="style856">
	.st0{fill:url(#SVGID_1_);stroke:#745C00;stroke-miterlimit:10;}
	.st1{fill:url(#SVGID_2_);stroke:#745C00;stroke-miterlimit:10;}
	.st2{fill:url(#SVGID_3_);stroke:#745C00;stroke-miterlimit:10;}
	.st3{fill:url(#SVGID_4_);stroke:#745C00;stroke-miterlimit:10;}
	.st4{fill:url(#SVGID_5_);stroke:#025641;stroke-miterlimit:10;}
	.st5{fill:url(#SVGID_6_);stroke:#025641;stroke-miterlimit:10;}
	.st6{fill:url(#SVGID_7_);stroke:#745C00;stroke-miterlimit:10;}
	.st7{fill:url(#SVGID_8_);stroke:#745C00;stroke-miterlimit:10;}
	.st8{fill:url(#SVGID_9_);stroke:#745C00;stroke-miterlimit:10;}
	.st9{fill:url(#SVGID_10_);stroke:#745C00;stroke-miterlimit:10;}
	.st10{fill:url(#SVGID_11_);stroke:#745C00;stroke-miterlimit:10;}
	.st11{fill:url(#SVGID_12_);stroke:#745C00;stroke-miterlimit:10;}
	.st12{fill:url(#SVGID_13_);stroke:#745C00;stroke-miterlimit:10;}
	.st13{fill:url(#SVGID_14_);}
	.st14{fill:url(#SVGID_15_);}
	.st15{fill:url(#SVGID_16_);stroke:#745C00;stroke-miterlimit:10;}
	.st16{fill:url(#SVGID_17_);}
	.st17{fill:url(#SVGID_18_);}
	.st18{fill:url(#SVGID_19_);stroke:#745C00;stroke-miterlimit:10;}
	.st19{fill:url(#SVGID_20_);stroke:#745C00;stroke-miterlimit:10;}
	.st20{fill:url(#SVGID_21_);stroke:#745C00;stroke-miterlimit:10;}
	.st21{fill:url(#SVGID_22_);stroke:#745C00;stroke-miterlimit:10;}
	.st22{fill:url(#SVGID_23_);stroke:#745C00;stroke-miterlimit:10;}
	.st23{fill:url(#SVGID_24_);stroke:#745C00;stroke-miterlimit:10;}
	.st24{fill:url(#SVGID_25_);stroke:#025641;stroke-miterlimit:10;}
	.st25{fill:url(#SVGID_26_);stroke:#025641;stroke-miterlimit:10;}
	.st26{fill:url(#SVGID_27_);stroke:#745C00;stroke-miterlimit:10;}
	.st27{fill:url(#SVGID_28_);stroke:#745C00;stroke-miterlimit:10;}
	.st28{fill:url(#SVGID_29_);stroke:#745C00;stroke-miterlimit:10;}
	.st29{fill:url(#SVGID_30_);stroke:#745C00;stroke-miterlimit:10;}
	.st30{fill:url(#SVGID_31_);stroke:#745C00;stroke-miterlimit:10;}
	.st31{fill:url(#SVGID_32_);stroke:#745C00;stroke-miterlimit:10;}
	.st32{fill:url(#SVGID_33_);stroke:#745C00;stroke-miterlimit:10;}
	.st33{fill:url(#SVGID_34_);stroke:#745C00;stroke-miterlimit:10;}
	.st34{fill:url(#SVGID_35_);stroke:#025641;stroke-miterlimit:10;}
	.st35{fill:none;}
	.st36{fill:url(#SVGID_36_);stroke:#745C00;stroke-miterlimit:10;}
	.st37{fill:url(#SVGID_37_);stroke:#745C00;stroke-miterlimit:10;}
</style><style
     type="text/css"
     id="style1299">
	.st0{fill:url(#SVGID_1_);stroke:#745C00;stroke-miterlimit:10;}
	.st1{fill:url(#SVGID_2_);stroke:#745C00;stroke-miterlimit:10;}
	.st2{fill:url(#SVGID_3_);stroke:#745C00;stroke-miterlimit:10;}
	.st3{fill:url(#SVGID_4_);stroke:#745C00;stroke-miterlimit:10;}
	.st4{fill:url(#SVGID_5_);stroke:#025641;stroke-miterlimit:10;}
	.st5{fill:url(#SVGID_6_);stroke:#025641;stroke-miterlimit:10;}
	.st6{fill:url(#SVGID_7_);stroke:#745C00;stroke-miterlimit:10;}
	.st7{fill:url(#SVGID_8_);stroke:#745C00;stroke-miterlimit:10;}
	.st8{fill:url(#SVGID_9_);stroke:#745C00;stroke-miterlimit:10;}
	.st9{fill:url(#SVGID_10_);stroke:#745C00;stroke-miterlimit:10;}
	.st10{fill:url(#SVGID_11_);stroke:#745C00;stroke-miterlimit:10;}
	.st11{fill:url(#SVGID_12_);stroke:#745C00;stroke-miterlimit:10;}
	.st12{fill:url(#SVGID_13_);stroke:#745C00;stroke-miterlimit:10;}
	.st13{fill:url(#SVGID_14_);}
	.st14{fill:url(#SVGID_15_);}
	.st15{fill:url(#SVGID_16_);stroke:#745C00;stroke-miterlimit:10;}
	.st16{fill:url(#SVGID_17_);}
	.st17{fill:url(#SVGID_18_);}
	.st18{fill:url(#SVGID_19_);stroke:#745C00;stroke-miterlimit:10;}
	.st19{fill:url(#SVGID_20_);stroke:#745C00;stroke-miterlimit:10;}
	.st20{fill:url(#SVGID_21_);stroke:#745C00;stroke-miterlimit:10;}
	.st21{fill:url(#SVGID_22_);stroke:#745C00;stroke-miterlimit:10;}
	.st22{fill:url(#SVGID_23_);stroke:#745C00;stroke-miterlimit:10;}
	.st23{fill:url(#SVGID_24_);stroke:#745C00;stroke-miterlimit:10;}
	.st24{fill:url(#SVGID_25_);stroke:#025641;stroke-miterlimit:10;}
	.st25{fill:url(#SVGID_26_);stroke:#025641;stroke-miterlimit:10;}
	.st26{fill:url(#SVGID_27_);stroke:#745C00;stroke-miterlimit:10;}
	.st27{fill:url(#SVGID_28_);stroke:#745C00;stroke-miterlimit:10;}
	.st28{fill:url(#SVGID_29_);stroke:#745C00;stroke-miterlimit:10;}
	.st29{fill:url(#SVGID_30_);stroke:#745C00;stroke-miterlimit:10;}
	.st30{fill:url(#SVGID_31_);stroke:#745C00;stroke-miterlimit:10;}
	.st31{fill:url(#SVGID_32_);stroke:#745C00;stroke-miterlimit:10;}
	.st32{fill:url(#SVGID_33_);stroke:#745C00;stroke-miterlimit:10;}
	.st33{fill:url(#SVGID_34_);stroke:#745C00;stroke-miterlimit:10;}
	.st34{fill:url(#SVGID_35_);stroke:#025641;stroke-miterlimit:10;}
	.st35{fill:none;}
	.st36{fill:url(#SVGID_36_);stroke:#745C00;stroke-miterlimit:10;}
	.st37{fill:url(#SVGID_37_);stroke:#745C00;stroke-miterlimit:10;}
</style><metadata
     id="metadata3"><rdf:RDF><cc:Work
         rdf:about=""><dc:title>Ken St James's banner</dc:title><dc:creator><cc:Agent><dc:title>(Holloway) Chew, Kean Ho</dc:title></cc:Agent></dc:creator><dc:rights><cc:Agent><dc:title>Ken St James</dc:title></cc:Agent></dc:rights><dc:publisher><cc:Agent><dc:title>Ken St James</dc:title></cc:Agent></dc:publisher><dc:language>english</dc:language><dc:description>The company banner for Ken St James.</dc:description><dc:subject><rdf:Bag><rdf:li>banner</rdf:li><rdf:li>company</rdf:li><rdf:li>Ken St James</rdf:li></rdf:Bag></dc:subject><dc:coverage>banner</dc:coverage><cc:license
           rdf:resource="https://doi.org/10.5281/zenodo.13767361" /><dc:identifier>ksj</dc:identifier><dc:date>Monday, December 16, 2024 10:30:00 UTC</dc:date><dc:relation>company trademark</dc:relation></cc:Work></rdf:RDF></metadata><g
     id="foreground"
     transform="matrix(1.8642401,0,0,1.8642401,425.25945,54.935579)"
     style="display:inline"><path
       id="text"
       style="display:inline;fill:#a0a2a5;fill-opacity:0.933333;stroke:none;stroke-width:0.923595px;stroke-linecap:butt;stroke-linejoin:miter;stroke-opacity:1"
       d="m 6.9476153,13.829292 0.1046253,16.815906 h 2.9096823 l 0.012628,-7.453693 5.4549781,7.453693 h 3.436418 l -6.445316,-8.599166 6.4381,-8.21674 h -3.34442 l -5.501879,7.329224 0.0018,-7.329224 z m 15.4395337,0 0.02165,16.815906 h 8.996022 v -2.907879 h -6.434494 l -0.01081,-3.878373 h 5.435135 v -2.318004 l -5.444153,-0.0019 0.01983,-4.874123 6.434494,-0.0054 v -2.830312 z m 13.848495,0 0.0451,16.815906 h 2.592191 l 0.03791,-11.732531 5.824773,11.732531 h 3.127955 l -0.07937,-16.815906 h -2.785218 l -0.01622,10.89372 -5.721955,-10.89372 z m 47.287302,0 c -1.505188,0.03492 -2.823669,0.473326 -4.477268,2.37573 0,0 -2.667141,4.009336 2.676976,6.586018 0.847903,0.408821 1.511644,0.709135 2.09612,0.988535 0.69921,0.334237 1.200464,0.702311 1.572997,0.930809 0.76395,0.879347 0.714259,1.690914 0.454584,2.152046 -0.448577,0.796579 -1.690848,1.218242 -2.162874,1.14367 -2.354706,-0.110791 -3.638448,-1.486409 -3.638448,-1.486409 l -1.993304,1.966244 c 0,0 2.738847,2.221122 5.709327,2.159263 1.573976,-0.03278 3.175043,-0.590229 4.551221,-2.713058 0.759191,-1.171086 0.623705,-2.313042 0.351761,-3.169443 -0.384693,-1.211448 -1.299032,-1.969062 -2.200751,-2.424434 -0.8542,-0.431376 -1.327067,-0.792924 -2.032988,-1.161709 -1.19238,-0.622914 -1.879666,-0.98673 -1.879666,-0.98673 0,0 -1.257107,-0.556883 -1.313225,-1.551348 -0.02635,-0.465583 -0.05628,-1.160512 0.878497,-1.830954 0.513164,-0.368051 1.258486,-0.449349 1.978876,-0.371602 1.484202,0.160184 2.949362,1.499036 2.949362,1.499036 l 1.755188,-1.780444 c 0,0 -2.482654,-2.390034 -5.276385,-2.32522 z m 7.843323,0 -0.0034,3.082856 h 4.511552 v 13.73305 H 99.0853 V 16.8905 h 4.58731 l 0.007,-3.061208 z m 23.784351,0 c 0,0 0.0926,14.453449 0.0216,15.928389 -0.0691,1.435026 -2.58678,1.883265 -2.58678,1.883265 l 1.36919,2.877213 c 3.49477,-0.420921 4.88047,-4.155953 4.82902,-4.79836 0.0586,-5.270196 0.0365,-10.539871 0.0144,-15.890507 z m 11.11741,0 -4.65585,16.815906 h 2.98725 l 0.97229,-3.355245 h 5.21325 l 1.1076,3.355245 h 3.19469 l -5.23129,-16.815906 z m 11.74515,0 -0.60791,16.815906 h 2.78341 l 0.0632,-12.316993 3.95775,10.374198 h 2.63729 l 2.92591,-10.374198 0.43475,12.316993 h 2.64451 l -0.76305,-16.815906 h -3.707 l -3.09192,10.588862 -3.47069,-10.588862 z m 19.79053,0 0.0216,16.815906 h 8.99602 v -2.907879 h -6.43266 l -0.0127,-3.878373 h 5.43694 v -2.318004 h -5.44596 l 0.0216,-4.875928 6.43269,-0.0054 v -2.83031 z m 17.35887,0 c -1.50517,0.03492 -2.82366,0.505796 -4.47726,2.408199 0,0 -2.66714,4.009339 2.67698,6.58602 0.84791,0.40882 1.50983,0.709135 2.09432,0.988533 0.69921,0.334238 1.20227,0.702313 1.5748,0.930809 0.76396,0.879349 0.71245,1.690916 0.45278,2.152048 -0.44859,0.796578 -1.69084,1.218241 -2.16287,1.143669 -2.35472,-0.110791 -3.63666,-1.48641 -3.63666,-1.48641 l -1.9951,1.968049 c 0,0 2.73884,2.186848 5.70933,2.124989 1.57398,-0.03278 3.17504,-0.55776 4.55122,-2.680588 0.75919,-1.171086 0.62551,-2.311238 0.35357,-3.167639 -0.38469,-1.211448 -1.30085,-1.969063 -2.20256,-2.424434 -0.85421,-0.431376 -1.32527,-0.794727 -2.03119,-1.163511 -1.19237,-0.622915 -1.87966,-0.984927 -1.87966,-0.984927 0,0 -1.25891,-0.558689 -1.31503,-1.553154 -0.0262,-0.465581 -0.0545,-1.158707 0.8803,-1.829149 0.51316,-0.368051 1.25848,-0.451153 1.97887,-0.373407 1.48421,0.160184 2.94937,1.499038 2.94937,1.499038 l 1.75519,-1.780444 c 0,0 -2.48266,-2.422505 -5.2764,-2.357691 z m -47.55066,3.669121 h 1.10218 l 1.75339,7.215579 h -4.4484 z" /><path
       id="bar-right"
       style="display:inline;fill:#a0a2a5;fill-opacity:0.933333;stroke-width:10.931;stroke-linecap:round;stroke-linejoin:round"
       d="m 67.074112,6.9875197 h 2.086197 c 0.114623,0 0.206901,0.092278 0.206901,0.2069017 V 42.893506 c 0,0.114624 -0.09228,0.206902 -0.206901,0.206902 h -2.086197 c -0.114623,0 -0.206902,-0.09228 -0.206902,-0.206902 V 7.1944214 c 0,-0.1146235 0.09228,-0.2069017 0.206902,-0.2069017 z" /><path
       id="bar-center"
       style="fill:#08598f;fill-opacity:0.898039;stroke-width:9.63693;stroke-linecap:round;stroke-linejoin:round"
       d="m 61.934906,0.03455577 h 2.086197 c 0.114623,0 0.206901,0.09227812 0.206901,0.20690161 V 36.211699 c 0,0.114623 -0.09228,0.206901 -0.206901,0.206901 h -2.086197 c -0.114623,0 -0.206902,-0.09228 -0.206902,-0.206901 V 0.24145738 c 0,-0.11462349 0.09228,-0.20690161 0.206902,-0.20690161 z" /><path
       id="bar-left"
       style="display:inline;fill:#515253;fill-opacity:0.85098;stroke-width:10.7395;stroke-linecap:round;stroke-linejoin:round"
       d="m 57.130184,12.11544 h 2.086197 c 0.114624,0 0.206902,0.09228 0.206902,0.206902 v 35.782356 c 0,0.114624 -0.09228,0.206902 -0.206902,0.206902 h -2.086197 c -0.114623,0 -0.206901,-0.09228 -0.206901,-0.206902 V 12.322342 c 0,-0.114624 0.09228,-0.206902 0.206901,-0.206902 z" /></g></svg>
